<?xml version="1.0" encoding="UTF-8" standalone="no"?>
<!-- Created with Inkscape (http://www.inkscape.org/) -->
<svg
   xmlns:dc="http://purl.org/dc/elements/1.1/"
   xmlns:cc="http://web.resource.org/cc/"
   xmlns:rdf="http://www.w3.org/1999/02/22-rdf-syntax-ns#"
   xmlns:svg="http://www.w3.org/2000/svg"
   xmlns="http://www.w3.org/2000/svg"
   xmlns:xlink="http://www.w3.org/1999/xlink"
   xmlns:sodipodi="http://sodipodi.sourceforge.net/DTD/sodipodi-0.dtd"
   xmlns:inkscape="http://www.inkscape.org/namespaces/inkscape"
   width="453.5433"
   height="453.5433"
   id="svg2"
   sodipodi:version="0.32"
   inkscape:version="0.45"
   version="1.0"
   sodipodi:docname="pwytter.svg"
   inkscape:output_extension="org.inkscape.output.svg.inkscape"
   sodipodi:docbase="C:\DOCUME~1\NANO-T~1\WORKSP~1\pwytter\src\media"
   inkscape:export-filename="C:\DOCUME~1\NANO-T~1\WORKSP~1\pwytter\src\media\pwytter.png"
   inkscape:export-xdpi="25.4"
   inkscape:export-ydpi="25.4"
   sodipodi:modified="TRUE">
  <defs
     id="defs4">
    <linearGradient
       id="linearGradient3148">
      <stop
         style="stop-color:#5f83e5;stop-opacity:1;"
         offset="0"
         id="stop3150" />
      <stop
         style="stop-color:#163484;stop-opacity:1;"
         offset="1"
         id="stop3152" />
    </linearGradient>
    <linearGradient
       id="linearGradient3136">
      <stop
         style="stop-color:#fbf26c;stop-opacity:1;"
         offset="0"
         id="stop3138" />
      <stop
         style="stop-color:#f7ffbb;stop-opacity:1;"
         offset="1"
         id="stop3140" />
    </linearGradient>
    <linearGradient
       inkscape:collect="always"
       xlink:href="#linearGradient3136"
       id="linearGradient3142"
       x1="162.06052"
       y1="208.39738"
       x2="162.06052"
       y2="192.18452"
       gradientUnits="userSpaceOnUse"
       gradientTransform="translate(0,6.6187838e-6)" />
    <radialGradient
       inkscape:collect="always"
       xlink:href="#linearGradient3148"
       id="radialGradient3156"
       cx="170.60269"
       cy="387.21967"
       fx="170.60269"
       fy="387.21967"
       r="78.187087"
       gradientTransform="matrix(0.5069897,-3.5236064e-2,2.9257318e-2,0.4209656,67.701418,250.62718)"
       gradientUnits="userSpaceOnUse" />
    <linearGradient
       inkscape:collect="always"
       xlink:href="#linearGradient3136"
       id="linearGradient4365"
       x1="406.36844"
       y1="264.82596"
       x2="400.55325"
       y2="194.11166"
       gradientUnits="userSpaceOnUse"
       spreadMethod="reflect" />
  </defs>
  <sodipodi:namedview
     id="base"
     pagecolor="#ffffff"
     bordercolor="#666666"
     borderopacity="1.0"
     inkscape:pageopacity="0.0"
     inkscape:pageshadow="2"
     inkscape:zoom="1.4"
     inkscape:cx="219.32117"
     inkscape:cy="238.57143"
     inkscape:document-units="mm"
     inkscape:current-layer="layer1"
     width="128mm"
     height="128mm"
     units="mm"
     gridspacingx="1mm"
     gridspacingy="1mm"
     gridanglex="8.4666669mm"
     gridanglez="8.4666669mm"
     grid_units="mm"
     showgrid="true"
     inkscape:window-width="1067"
     inkscape:window-height="893"
     inkscape:window-x="22"
     inkscape:window-y="29" />
  <metadata
     id="metadata7">
    <rdf:RDF>
      <cc:Work
         rdf:about="">
        <dc:format>image/svg+xml</dc:format>
        <dc:type
           rdf:resource="http://purl.org/dc/dcmitype/StillImage" />
      </cc:Work>
    </rdf:RDF>
  </metadata>
  <g
     inkscape:label="Calque 1"
     inkscape:groupmode="layer"
     id="layer1">
    <g
       id="g3171"
       transform="matrix(1.0436411,0,0,1.0667111,-1.0936416,-25.359934)">
      <path
         style="opacity:0.09090899;fill:#e1e1e1;fill-opacity:1;fill-rule:evenodd;stroke:none;stroke-width:1.7858268;stroke-linecap:butt;stroke-linejoin:miter;stroke-miterlimit:4;stroke-opacity:1"
         d="M 75,168.5625 C 45.629998,168.58093 18.251264,192.73025 15.78125,222.25 C 12.097762,251.11842 33.125784,279.90118 61.28125,286.3125 C 89.376561,294.06339 121.57981,278.73306 132.8125,251.71875 C 134.92288,246.11041 136.731,240.44585 140.0625,235.375 C 141.84495,241.25062 142.66824,247.23839 142.21875,253.375 C 150.10417,253.375 157.98958,253.375 165.875,253.375 C 163.3569,245.50234 170.29062,246.44272 175.98429,246.25001 C 231.74822,243.05243 287.96715,240.04996 343.61692,246.18937 C 365.09447,249.00379 389.09062,253.78877 403.25,271.78125 C 406.06917,275.19607 408.42963,280.77689 409.625,283.9375 C 411.72261,246.81973 411.8366,209.56166 409.8125,172.4375 C 403.63649,191.47971 383.54073,200.77091 365.43485,204.92495 C 326.04397,213.32039 285.2716,212.71303 245.125,212.8125 C 218.69206,212.50357 192.27177,211.51756 165.875,210.125 C 168.46557,201.61776 160.92866,203.23801 154.875,203.375 C 149.81288,204.31288 139.655,200.155 142.21875,208.71875 C 138.1315,208.29917 132.9365,209.42915 132.375,204.09375 C 122.62221,182.06815 98.887662,167.66725 75,168.5625 z "
         id="path3173" />
      <path
         style="opacity:0.09090899;fill:#e1e1e1;fill-opacity:1;fill-rule:evenodd;stroke:none;stroke-width:1.7858268;stroke-linecap:butt;stroke-linejoin:miter;stroke-miterlimit:4;stroke-opacity:1"
         d="M 74.96875,167.90625 C 45.493199,167.87172 17.861148,192.12906 15.139568,221.74388 C 11.469947,249.36261 30.22119,277.53902 56.78125,285.71875 C 84.413902,295.42023 117.74364,282.64856 131.25,256.4375 C 134.90333,250.29495 135.75189,243.1165 139.84375,237.1875 C 142.5421,242.26707 140.29891,250.38159 142.5625,254.03125 C 150.55208,254.03125 158.54167,254.03125 166.53125,254.03125 C 163.69566,245.39568 172.27679,247.38742 178.01105,246.77233 C 233.9796,243.65992 290.42613,240.59164 346.24018,247.20229 C 367.14727,250.11975 390.62411,255.39576 403.6875,273.53125 C 406.79441,278.01316 408.94933,283.15159 409.96875,288.5 C 412.46376,248.52601 412.66773,208.35363 410.15625,168.375 C 406.77416,186.39577 389.42289,197.36952 372.96875,202.1875 C 340.31019,211.26588 305.95761,211.30373 272.28152,212.15062 C 237.01343,212.51771 201.74741,211.33893 166.53125,209.5 C 169.29399,200.81018 161.54076,202.63633 155.53125,202.71875 C 150.74,204.04209 139.78284,199.19951 141.5625,207.09375 C 138.81767,209.28986 132.9924,207.52986 132.5,202.84375 C 122.46323,181.15696 98.838106,166.98913 74.96875,167.90625 z "
         id="path3178" />
      <path
         style="opacity:0.09090899;fill:#e1e1e1;fill-opacity:1;fill-rule:evenodd;stroke:none;stroke-width:1.7858268;stroke-linecap:butt;stroke-linejoin:miter;stroke-miterlimit:4;stroke-opacity:1"
         d="M 410.25,162.5625 C 409.79385,179.99193 395.47208,193.41628 379.90625,198.96875 C 352.92413,209.073 323.39933,209.47996 294.84548,210.97688 C 252.29962,212.34702 209.7147,211.03154 167.21875,208.84375 C 170.08179,199.70987 161.3002,202.22064 155.21875,202.03125 C 150.90001,203.51459 140.30042,198.71708 140.875,205.09375 C 141.59993,209.07195 133.32217,207.50533 133.59375,203.5625 C 114.00205,154.76376 35.819682,156.13599 18.40625,206 C 7.2738746,232.29169 18.330835,265.31754 42.875,279.875 C 68.22061,296.59539 105.38889,291.06572 124.68618,267.30681 C 131.74322,259.705 134.82629,249.67064 138.83257,240.4149 C 141.63122,239.2555 140.74305,250.75992 140.875,254.71875 C 149.65625,254.71875 158.4375,254.71875 167.21875,254.71875 C 164.5399,246.29873 172.59569,247.91907 178.40625,247.4375 C 234.2149,244.326 290.47209,241.32527 346.14643,247.85854 C 367.09121,250.79485 390.8652,256.11785 403.59375,274.59375 C 407.47691,280.44871 409.63881,287.34076 410.09375,294.34375 C 413.39279,252.80243 413.29705,210.97129 410.92427,169.37787 C 410.77769,167.48771 410.4726,163.10687 410.25,162.5625 z "
         id="path3183" />
      <path
         style="opacity:0.09090899;fill:#e1e1e1;fill-opacity:1;fill-rule:evenodd;stroke:none;stroke-width:1.7858268;stroke-linecap:butt;stroke-linejoin:miter;stroke-miterlimit:4;stroke-opacity:1"
         d="M 409.25,152.5 C 411.89793,167.48019 405.45601,183.43993 392.625,191.5 C 370.72551,205.86622 343.17297,206.84159 317.72394,209.20646 C 267.82174,212.26861 217.76684,210.70703 167.875,208.21875 C 170.57888,199.56695 162.93863,201.25928 156.875,201.375 C 151.87634,202.59509 141.92074,198.85824 140.21875,203.375 C 141.18485,209.55736 133.35542,205.76353 133.29432,201.34454 C 120.49662,174.59285 87.655253,160.44945 59.21875,168.90625 C 30.934984,176.16929 10.063674,205.38131 13.78125,234.71875 C 16.38169,265.81556 45.550831,290.93813 76.5625,290.21875 C 104.19046,290.73141 130.74268,270.95925 137.59375,244.125 C 141.39665,236.57618 139.94933,251.98076 140.21875,255.375 C 149.4375,255.375 158.65625,255.375 167.875,255.375 C 165.17179,247.24636 172.36053,248.34204 178.1048,248.11608 C 233.64895,245.0104 289.65863,242.00061 345.0625,248.40625 C 366.1593,251.2703 390.26376,256.42855 403.03125,274.96875 C 408.78361,283.49385 410.3113,294.10429 409.34375,304.21875 C 413.8023,274.2099 412.96903,243.51827 413.17411,213.18759 C 412.48805,192.74625 413.21417,171.91895 409.1875,151.84375 L 409.25,152.5 z "
         id="path3188" />
      <path
         style="opacity:0.09090899;fill:#e1e1e1;fill-opacity:1;fill-rule:evenodd;stroke:none;stroke-width:1.7858268;stroke-linecap:butt;stroke-linejoin:miter;stroke-miterlimit:4;stroke-opacity:1"
         d="M 408.40625,149.59375 C 409.81414,160.78788 409.15661,173.01252 401.75194,182.03426 C 389.92022,196.83077 370.18956,201.79292 352.18242,204.82622 C 308.57111,211.20177 264.31109,210.47229 220.36037,209.64927 C 203.08593,209.1879 185.81952,208.45938 168.5625,207.5625 C 169.16136,202.8853 168.9721,198.99623 163.2025,200.6875 C 155.31208,200.6875 147.42167,200.6875 139.53125,200.6875 C 141.26012,204.64982 137.62585,208.18673 135.28125,204.09375 C 124.79365,178.81927 96.653924,162.82973 69.333197,166.25287 C 42.616589,168.78503 18.793097,189.97227 13.923068,216.46783 C 8.5576671,241.79873 21.246777,269.0934 43.46875,281.8125 C 66.128095,295.78736 97.637065,293.37804 117.78125,276.03125 C 128.0669,267.78355 135.09969,255.70312 138.84469,243.09643 C 140.24605,244.80787 139.21482,251.05144 139.53125,254.51875 C 140.15286,257.98506 147.09029,255.13554 150.25125,256.0625 C 156.355,256.0625 162.45875,256.0625 168.5625,256.0625 C 167.59708,250.94825 168.93137,248.01555 174.53547,249.04733 C 227.54924,245.81937 280.86269,243.27201 333.875,247.8125 C 355.1932,250.13417 378.33427,252.88334 395.28125,267.15625 C 406.07312,276.05492 410.32341,290.77756 408.64087,304.44963 C 408.47115,305.39555 408.21558,308.98765 409.28125,306.71875 C 412.61973,294.1544 412.31908,280.62875 413.16234,267.61617 C 414.18384,231.92381 414.71212,196.08552 411.44551,160.49176 C 410.48972,156.9262 411.2193,152.08004 408.4375,149.40625 L 408.40625,149.59375 z "
         id="path3193" />
      <path
         style="opacity:0.09090899;fill:#e1e1e1;fill-opacity:1;fill-rule:evenodd;stroke:none;stroke-width:1.7858268;stroke-linecap:butt;stroke-linejoin:miter;stroke-miterlimit:4;stroke-opacity:1"
         d="M 408.1875,148.78125 C 407.75033,149.03876 407.84333,149.80843 407.82675,150.29324 C 408.11491,154.43382 408.70596,158.58043 408.32504,162.73692 C 408.01965,167.54652 406.77631,172.30429 404.5625,176.59375 C 402.21737,181.17583 398.74784,185.08816 394.76759,188.33313 C 392.14372,190.53102 389.17834,192.37767 386.15625,194 C 380.18336,197.14629 373.74885,199.43617 367.21244,201.14115 C 356.98814,203.81147 346.49276,205.22823 336.00507,206.38186 C 325.05298,207.54351 314.05882,208.27831 303.05709,208.76185 C 291.62932,209.23863 280.19434,209.54338 268.75638,209.58986 C 259.60047,209.66537 250.44336,209.61065 241.2879,209.50679 C 222.1587,209.23122 203.03453,208.64051 183.92432,207.74586 C 178.98933,207.54811 174.05795,207.26824 169.125,207.03125 C 169.125,204.72917 169.125,202.42708 169.125,200.125 C 159.07292,200.125 149.02083,200.125 138.96875,200.125 C 138.96875,201.8125 138.96875,203.5 138.96875,205.1875 C 138.08274,205.14072 137.19836,205.0506 136.3125,205 C 134.07841,199.58192 131.09127,194.48482 127.46875,189.875 C 126.71414,188.82009 125.68567,187.70765 124.78379,186.66534 C 122.61569,184.208 120.19913,181.97616 117.6875,179.875 C 116.67292,179.12676 115.52182,178.20114 114.42241,177.42643 C 111.35127,175.20816 108.06795,173.28426 104.66186,171.6356 C 99.082366,168.954 93.106152,167.11877 86.999083,166.12319 C 80.069589,165.02258 72.958181,165.01098 66.029822,166.12401 C 57.312601,167.54254 48.862308,170.70546 41.454411,175.52038 C 39.400066,176.7754 37.488405,178.2385 35.59375,179.71875 C 34.51792,180.54011 33.350391,181.59481 32.2917,182.56594 C 30.000199,184.69792 27.864644,186.99564 25.90625,189.4375 C 25.135652,190.5506 24.103997,191.73647 23.316999,192.94 C 18.671935,199.60679 15.331361,207.18039 13.624712,215.13197 C 12.012916,222.3645 11.797799,229.89471 12.816406,237.22705 C 14.085675,245.98656 17.22726,254.47643 22.040758,261.90368 C 23.472034,264.14664 25.100391,266.3095 26.728015,268.31982 C 29.387539,271.51601 32.350521,274.45907 35.59375,277.0625 C 36.573248,277.78859 37.690786,278.68805 38.759899,279.43452 C 41.995748,281.70773 45.410827,283.73646 48.990525,285.41246 C 55.866748,288.57598 63.2883,290.59521 70.834849,291.22528 C 77.119198,291.75195 83.487825,291.43898 89.666067,290.14788 C 93.184055,289.42338 96.657725,288.44253 99.998829,287.11763 C 105.97231,284.862 111.55102,281.62734 116.5963,277.72243 C 118.78752,276.06855 120.94929,274.08227 122.9445,272.08435 C 124.69907,270.28068 126.42033,268.37312 127.84963,266.38724 C 131.29299,261.95378 134.11635,257.05046 136.28125,251.875 C 137.27346,249.41837 138.09365,246.88882 138.83086,244.35068 C 139.10622,244.28266 138.90922,245.45292 138.96875,245.86875 C 138.96875,249.45417 138.96875,253.03958 138.96875,256.625 C 149.02083,256.625 159.07292,256.625 169.125,256.625 C 169.125,254.40625 169.125,252.1875 169.125,249.96875 C 190.9248,248.50461 212.74501,247.2861 234.58527,246.61819 C 250.36068,246.06995 266.14695,245.88579 281.9312,245.99175 C 292.68509,246.0798 303.43913,246.36375 314.17874,246.9276 C 323.31251,247.43716 332.44073,248.10308 341.52407,249.20586 C 351.06759,250.37945 360.60896,251.89798 369.84522,254.62824 C 374.73624,256.09728 379.50449,257.9743 384.0625,260.28125 C 390.16646,263.41569 395.7779,267.6166 400.07835,273.00211 C 402.98376,276.57045 405.1147,280.79016 406.49527,285.19017 C 407.44142,288.39396 408.04877,291.69234 408.23145,295.02931 C 408.53087,298.95878 408.13742,302.89646 407.9375,306.81875 C 407.98142,307.30391 407.86362,308.04704 408.28125,308.34375 C 409.22561,308.23528 409.7445,307.25003 410.04055,306.37583 C 411.31851,302.24337 411.64251,297.89436 412.11337,293.61346 C 412.82778,286.67937 413.17338,279.71383 413.51331,272.75319 C 413.97044,262.22452 414.27008,251.68858 414.3648,241.15014 C 414.61194,221.66022 414.47668,202.16003 413.62297,182.68516 C 413.23132,174.75314 412.83363,166.808 411.81595,158.92694 C 411.37007,155.96062 411.03116,152.9167 409.875,150.125 C 409.61076,149.44093 408.9923,148.93805 408.25,148.75 L 408.1875,148.78125 z "
         id="path3198" />
      <path
         style="opacity:0.09090899;fill:#e1e1e1;fill-opacity:1;fill-rule:evenodd;stroke:none;stroke-width:1.7858268;stroke-linecap:butt;stroke-linejoin:miter;stroke-miterlimit:4;stroke-opacity:1"
         d="M 408.09375,148.03125 C 405.77484,149.39864 407.90717,153.25601 407.5,155.4375 C 409.17161,168.59985 403.18588,181.93875 392.21875,189.34375 C 374.16785,201.75745 351.27444,203.92902 329.97887,206.22421 C 276.72326,210.65104 223.18122,208.85617 169.875,206.3125 C 170.46142,201.6315 170.28253,197.71581 164.52875,199.375 C 155.75875,199.375 146.98875,199.375 138.21875,199.375 C 139.27994,203.38444 136.87211,206.34653 135.53125,201.40625 C 124.15919,176.76673 96.288675,161.56762 69.208076,164.93913 C 41.05287,167.53374 16.14608,190.54003 12.1875,218.65625 C 7.8894388,243.84411 20.855008,270.35555 42.78125,283 C 66.715023,297.67694 100.0595,294.51862 120.625,275.375 C 128.55682,268.20171 134.75493,258.99436 138.21875,248.84375 C 138.69957,252.5421 136.18746,259.23337 142.225,257.375 C 151.44167,257.375 160.65833,257.375 169.875,257.375 C 169.21809,252.74562 169.54129,249.03165 175.22252,250.32202 C 227.89746,247.12235 280.86882,244.60742 333.54227,249.10468 C 354.35147,251.36763 377.01569,254.06011 393.71875,267.5625 C 404.84995,276.37597 409.10449,291.28028 407.28125,305.0625 C 406.83729,306.52595 407.09064,310.33929 409.40625,308.6875 C 412.67422,304.76642 411.85713,298.72775 412.84375,293.875 C 415.80732,256.86598 415.68385,219.64887 414.36926,182.56398 C 413.49068,171.55148 413.94447,159.9496 410.40625,149.46875 C 409.95845,148.69072 409.04204,147.91938 408.09375,148.03125 z "
         id="path3203" />
      <path
         style="opacity:0.09090899;fill:#e1e1e1;fill-opacity:1;fill-rule:evenodd;stroke:none;stroke-width:1.7858268;stroke-linecap:butt;stroke-linejoin:miter;stroke-miterlimit:4;stroke-opacity:1"
         d="M 407.9375,147.34375 C 404.36919,149.54438 407.71708,155.24572 407,158.75 C 408.1058,174.56413 396.73726,188.24966 382.6875,194.15625 C 357.23996,205.20898 328.56276,205.64946 301.09608,207.39938 C 257.59118,209.10772 214.0266,207.85152 170.5625,205.65625 C 173.25522,197.1927 166.32818,198.34891 160.21875,198.6875 C 152.65625,198.6875 145.09375,198.6875 137.53125,198.6875 C 138.16288,204.84537 136.83355,203.3355 135.09375,198.96875 C 121.51797,172.05961 88.172348,157.82081 59.125927,166.12663 C 30.113864,173.37635 8.2746983,202.50851 10.901347,232.68584 C 12.472253,264.07502 39.759992,290.63144 70.840804,292.67045 C 98.768415,295.46346 127.08072,278.57497 137.53125,252.65625 C 134.90547,260.86536 143.94932,257.40485 148.875,258.0625 C 156.10417,258.0625 163.33333,258.0625 170.5625,258.0625 C 168.01701,250.07529 174.73143,250.73334 180.62131,250.65989 C 236.08148,247.61466 292.10125,244.64444 347.34375,251.40625 C 367.0842,254.3561 389.32144,259.38649 401.1875,277.03125 C 407.50791,286.29638 407.05742,297.70352 406.65625,308.40625 C 408.77403,312.1584 412.29466,306.98122 412.0625,304.375 C 416.55052,273.24278 415.71676,241.55727 415.82167,210.15661 C 415.01668,190.25486 415.9514,169.8103 411.53125,150.375 C 411.0735,148.77526 409.70586,147.18065 407.9375,147.34375 z "
         id="path3208" />
      <path
         style="opacity:0.09090899;fill:#e1e1e1;fill-opacity:1;fill-rule:evenodd;stroke:none;stroke-width:1.7858268;stroke-linecap:butt;stroke-linejoin:miter;stroke-miterlimit:4;stroke-opacity:1"
         d="M 407.84375,146.6875 C 403.51794,148.71268 407.00373,155.00184 406.34375,158.75 C 407.47751,174.61379 395.70664,188.34895 381.4375,193.9375 C 356.60713,204.47802 328.76963,204.96334 302.06405,206.70376 C 258.45694,208.46342 214.78687,207.22265 171.21875,205.03125 C 174.09449,195.82218 165.44645,198.13688 159.21875,198.03125 C 151.77083,198.03125 144.32292,198.03125 136.875,198.03125 C 137.56755,203.87987 135.77557,198.37162 134.5,196.5 C 120.4103,171.01767 88.150147,157.58395 59.9375,165.25 C 30.524046,172.05471 7.9647467,201.27742 10.1875,231.75 C 11.218936,262.8637 37.498553,289.80179 68.09375,293.0625 C 96.015715,296.93891 125.1329,281.32114 136.875,255.75 C 137.01004,261.93788 148.00383,257.26701 152.875,258.71875 C 158.98958,258.71875 165.10417,258.71875 171.21875,258.71875 C 168.40207,250.01572 176.68845,251.65352 182.64892,251.19552 C 236.87385,248.25199 291.53532,245.43432 345.61495,251.86017 C 365.58152,254.69734 388.57245,259.47693 400.625,277.40625 C 406.78988,286.46667 406.45118,297.81851 405.96875,308.34375 C 407.3544,312.88241 412.57516,308.9242 412.46875,305.6875 C 416.99019,277.85938 416.14967,249.41057 416.5625,221.28125 C 415.99012,197.94287 416.87806,174.2046 412.5,151.21875 C 412.03163,148.9782 410.46203,146.43476 407.84375,146.6875 z "
         id="path3213" />
      <path
         style="opacity:0.09090899;fill:#e1e1e1;fill-opacity:1;fill-rule:evenodd;stroke:none;stroke-width:1.7858268;stroke-linecap:butt;stroke-linejoin:miter;stroke-miterlimit:4;stroke-opacity:1"
         d="M 407.71875,146 C 402.4929,148.09727 406.5175,155.38509 405.65625,159.59375 C 406.51202,175.35436 394.18532,188.48164 380.15625,193.8125 C 354.51974,204.09853 326.29591,204.51543 299.03513,206.13439 C 256.66286,207.70488 214.23741,206.50139 171.90625,204.375 C 174.46851,195.90649 167.45232,197.01643 161.21875,197.34375 C 152.875,197.34375 144.53125,197.34375 136.1875,197.34375 C 135.78414,198.19227 133.76769,193.47679 132.5,192 C 115.97384,166.79687 81.638882,155.91494 53.46875,166.5 C 25.253527,176.07556 5.7354257,206.34062 9.8788214,236.08898 C 13.026189,266.95032 40.598137,292.31148 71.375,294.0625 C 97.539603,296.3394 124.26394,281.92775 136.1875,258.53125 C 140.32431,260.58194 148.27576,258.81799 153.875,259.40625 C 159.88542,259.40625 165.89583,259.40625 171.90625,259.40625 C 169.33273,251.46922 175.84127,251.95787 181.71322,251.94297 C 236.21358,248.95285 291.2146,246.11252 345.5212,252.51642 C 365.30372,255.37728 388.11723,259.99734 400.0625,277.78125 C 406.28714,286.83839 405.65174,298.13416 405.3125,308.5 C 406.82351,313.82412 413.17839,309.82376 413.125,305.8125 C 417.7121,277.61119 416.85737,248.79256 417.24559,220.28126 C 416.68071,197.17556 417.49826,173.74169 413.15625,151 C 412.55799,148.41316 410.68473,145.69995 407.71875,146 z "
         id="path3218" />
      <path
         style="opacity:0.09090899;fill:#e1e1e1;fill-opacity:1;fill-rule:evenodd;stroke:none;stroke-width:1.7858268;stroke-linecap:butt;stroke-linejoin:miter;stroke-miterlimit:4;stroke-opacity:1"
         d="M 407.625,145.34375 C 401.78872,147.29577 405.64623,155.06305 405,159.59375 C 405.81582,175.24689 393.62868,187.93556 379.875,193.1875 C 354.64071,203.35204 326.87969,203.78168 300.0031,205.43876 C 257.52874,207.06491 214.99765,205.86986 172.5625,203.75 C 175.15792,195.3525 168.412,196.29634 162.21875,196.6875 C 153.52083,196.6875 144.82292,196.6875 136.125,196.6875 C 121.74956,169.7488 87.985353,155.80218 58.625927,164.18913 C 29.004431,171.57062 6.6299959,201.12302 8.84375,231.8125 C 9.9055639,263.26255 36.227565,290.68775 67.240712,294.29223 C 94.417201,298.3414 123.1208,284.25959 136.15625,260.0625 C 148.29167,260.0625 160.42708,260.0625 172.5625,260.0625 C 170.30894,252.60147 175.86938,252.42387 181.74447,252.59922 C 236.19367,249.60994 291.17549,246.77248 345.42721,253.17434 C 364.57956,255.95394 386.43011,260.28937 398.71875,276.9375 C 405.44106,285.99285 405.17363,297.66342 404.59375,308.40625 C 405.62036,314.26754 413.35285,311.39393 413.5625,306.65625 C 417.97481,283.3627 417.17508,259.29508 417.875,235.625 C 417.61873,207.83167 418.54059,179.7212 414.15625,152.21875 C 413.57513,148.91015 411.61346,144.91297 407.625,145.34375 z "
         id="path3223" />
    </g>
    <g
       id="g2169">
      <path
         sodipodi:nodetypes="czzzzcc"
         id="path2162"
         d="M 143.15841,184.84824 C 143.15841,184.84824 299.32021,196.7021 367.86649,182.7867 C 436.41276,168.87129 409.61727,123.34638 417.3435,129.1866 C 424.71275,134.75697 423.99846,282.15606 417.3435,287.92534 C 410.27189,294.05582 434.86661,246.17911 367.86649,232.2637 C 300.86638,218.34829 149.34304,232.2637 149.34304,232.2637 L 143.15841,184.84824 z "
         style="fill:url(#linearGradient4365);fill-opacity:1.0;fill-rule:evenodd;stroke:#000000;stroke-width:1.78582677;stroke-linecap:butt;stroke-linejoin:miter;stroke-miterlimit:4;stroke-dasharray:none;stroke-opacity:1" />
      <path
         transform="matrix(0.8847402,0,0,0.8847402,-55.731644,-174.13081)"
         d="M 231.42857 432.36218 A 72.85714 71.428574 0 1 1  85.714287,432.36218 A 72.85714 71.428574 0 1 1  231.42857 432.36218 z"
         sodipodi:ry="71.428574"
         sodipodi:rx="72.85714"
         sodipodi:cy="432.36218"
         sodipodi:cx="158.57143"
         id="path2160"
         style="opacity:1;fill:url(#radialGradient3156);fill-opacity:1;fill-rule:nonzero;stroke:#163484;stroke-width:10.62903786;stroke-linecap:butt;stroke-linejoin:miter;stroke-miterlimit:4;stroke-dasharray:none;stroke-opacity:1"
         sodipodi:type="arc" />
      <rect
         y="180.04617"
         x="146.89592"
         height="56.702419"
         width="30.329203"
         id="rect3134"
         style="opacity:1;fill:url(#linearGradient3142);fill-opacity:1;fill-rule:nonzero;stroke:#000000;stroke-width:1.78582677;stroke-linecap:butt;stroke-linejoin:miter;stroke-miterlimit:4;stroke-dasharray:none;stroke-opacity:1" />
    </g>
  </g>
</svg>
